<svg version="1.0" xmlns="http://www.w3.org/2000/svg" width="296" height="296" viewBox="0 0 222 222"><path d="M6.3 4.8C.2 9.4.1 9.6 0 14.3v4.9l5.3-4.5c2.8-2.5 8.5-6.8 12.6-9.6L25.4 0h-6.5c-6.1 0-6.7.3-12.6 4.8zM41.5 4.8C29.3 11.2 20.2 17.4 9.3 27 3.1 32.4 0 35.8 0 37.2c0 1.7 1.3.9 6.7-4.4 12.7-12.2 28-22.4 44.2-29.5C58.4.1 58.4 0 54.5 0c-2.8.1-6.7 1.5-13 4.8zM171 3.9c15.6 6.9 29.7 16.4 42.8 28.6 4.5 4.2 8.2 7 8.2 6.3 0-1.8-12.3-13.7-20.5-20C188.2 8.7 171.6 0 165.8 0c-2.8 0-2.1.6 5.2 3.9zM197.4 1.3c2.9 1.8 16.6 12.2 20.9 15.7l3.7 3.2v-4.5c0-4.5-.2-4.7-7.1-10.1C208 .2 207.6 0 201.6.1c-5.1 0-5.8.2-4.2 1.2zM89.9 2.5C58 7.7 34 19.7 10.8 41.9L0 52.2V222h222V54.6L210.3 43c-21.4-21.1-43-32.9-71.3-39-12.6-2.7-37.1-3.5-49.1-1.5zm54.2 41.1c2.5 1.2 7.2 4.5 10.3 7.3 4.7 4.3 6.2 5.1 9.5 5.1 4.5 0 5.1.9 5.1 7.9 0 5.8-1.5 7.9-6 8.3l-3.5.3-.3 8.7c-.3 8.6-.3 8.7-3.8 11.6-1.9 1.6-6.3 4.3-9.6 6.1-4.9 2.5-7.3 3.1-12.4 3.1-8.2 0-9.2-.5-10.4-5-.9-3.2-1.8-4.2-5.6-6-3.8-1.9-5.6-2.1-10.2-1.6-7 .8-10.3 3.1-12 8.2-1.9 5.6-2.8 31.5-1.3 38.7 2.1 9.8 8.5 21.2 16.3 28.9 3.8 3.7 7.5 6.8 8.3 6.8 3.1 0 2.4-2.3-2.2-7.4-10.6-11.5-16.3-27.8-16.6-47.1l-.2-12 38.7-.3c36.1-.2 38.8-.1 39.6 1.5 1.4 2.7-.3 22-2.8 30.9-2.8 10.3-7.9 19.9-14.6 27.2-3 3.4-5.1 6.3-4.7 6.5.5.3 2.8.8 5.3 1.2 7.1 1 7.9 1.5 9.5 4.5.8 1.6 1.5 3.1 1.5 3.5 0 .3-28.1.5-62.5.5s-62.5-.2-62.5-.4c0-1.9 2.5-6.1 6.1-10.2 7.1-8.2 8.5-12.6 14.6-45.9 6.3-34.9 6.5-32.8-3-35.8-3-.9-6.1-2.5-7-3.5-1.9-2.1-5.7-16.7-5.7-21.9 0-4.8 3.8-12.9 7.8-16.6 5.8-5.5 7.5-5.7 45.2-5.4 32.8.2 34.7.3 39.1 2.3z"/><path d="M65.8 73.7c-.6.7-.8 2-.4 2.8.5 1.3 5.9 1.5 44.7 1.3 28.4-.2 44.3-.7 44.6-1.3 1-3.2-1.1-3.4-44.6-3.7-33.4-.2-43.5 0-44.3.9zM125 88c-2.6 1.6.9 2.1 15 1.8 9.6-.2 13.5-.7 13.8-1.6.3-.9-2.8-1.2-13.5-1.2-7.6 0-14.5.4-15.3 1z"/></svg>