<svg width="480" height="270" fill="none" xmlns="http://www.w3.org/2000/svg"><path d="M342.152 267.301c-.548-.284-.274-2.13-.274-3.124.411-6.534.823-13.067 1.371-19.601.137-.994.822-2.272 1.644-2.698 1.37-.71 2.192.426 2.603 1.846a753.112 753.112 0 0 0 6.03 15.908c.411.852.822 1.846 1.37 3.266 1.781-4.403 3.151-8.237 4.659-12.072.959-2.557 1.781-5.113 3.014-7.528.411-.994.822-1.42 2.467-1.42 1.233.142 1.233 1.136 1.37 1.988.548 6.818 1.096 13.635 1.644 20.595 0 .994-.411 2.982-.822 2.982h-.685c-.548 0-.822-2.414-.959-3.692-.411-3.409-.548-6.96-.685-10.369-.137-1.704-.411-4.687-.548-4.971-.274-.284-.549-.284-.686 0-.411.142-7.125 18.748-8.084 19.032-.411.142-.959-.142-1.233-.568-1.371-1.42-6.715-18.748-8.085-18.464-.685.284-.685 5.966-.959 8.948-.137 3.551-.411 10.226-1.507 10.226-.822-.142-1.096-.142-1.645-.284ZM195.398 267.159c-.685-.284-2.603-6.675-3.837-10.226-1.37-4.119-2.466-8.38-3.562-12.641-.137-.71 0-2.272.411-2.556 1.233-.568 1.781.284 2.055 1.562 1.37 5.113 2.741 10.084 4.248 15.197.274.853.685 1.705 1.37 3.125 1.645-5.397 3.152-10.084 4.659-14.771.274-.994.548-1.988.959-2.841.411-.852 1.234-2.13 1.919-1.988.685 0 1.781.994 2.055 1.846 1.233 3.693 2.33 7.386 3.426 11.079.685 2.13 1.37 4.119 2.603 6.249.822-2.841 1.645-5.539 2.467-8.38.822-2.982 1.644-6.107 2.603-9.09.274-.852 1.096-2.13 2.056-1.988 1.507-.142.548 1.846.411 2.698-1.919 6.96-3.974 13.777-6.029 20.737-.549 2.13-1.234 1.988-1.782 1.988s-1.233-1.278-1.507-1.988c-1.781-5.255-3.426-10.368-5.207-15.623-.274-.853-.822-1.705-1.37-3.125-2.056 6.249-4.111 11.788-5.618 17.47-.411 1.278-.411 2.13-.96 3.266a2.256 2.256 0 0 1-1.37 0ZM67.553 267.728c-.822-.143-2.192-.427-3.562-1.563-3.837-3.267-5.481-7.243-5.344-12.072 0-4.829 1.507-9.09 5.892-11.647 4.385-2.556 12.332-1.704 15.073 5.397 2.33 6.25.685 12.925-3.289 17.328-.822.994-1.918 1.704-3.151 2.13-2.467.711-4.796.427-5.618.427Zm10.277-13.919c-.137-.853-.274-2.273-.548-3.693-.685-3.409-3.7-6.108-6.851-6.392-3.289-.284-6.166 1.421-7.673 4.687-1.645 3.267-1.508 6.676-.686 9.942 1.37 5.398 6.852 7.954 11.237 5.54 3.425-1.989 4.384-5.54 4.521-10.084ZM87.285 267.301c-.822 0-.822-1.988-.822-3.124-.137-6.676 0-13.209-.137-19.885 0-2.13.822-2.84 2.74-2.698 2.193.142 4.385 0 6.578.426 2.877.568 4.385 2.699 4.796 5.681.411 2.983-.686 5.113-3.426 6.818-.548.284-1.918.852-1.918 1.278 0 .852 3.288 4.971 5.755 8.522.548.71.959 2.13.548 2.982-.137.426-1.781.284-2.193-.142-.41 0-4.522-6.959-6.988-10.51-.411-.568-1.644-.994-2.33-.852-.41 0-.959 1.278-.959 1.988-.137 1.989.138 4.119-.136 6.108-.138 1.136-.138 3.266-1.37 3.266.273.142 0 .142-.138.142Zm1.919-18.464c0 4.545 0 4.545 2.877 4.545 3.7 0 5.755-1.704 5.755-4.687 0-2.84-2.055-4.403-5.755-4.403-2.877-.142-2.877 0-2.877 4.545ZM373.942 267.301c-1.096 0-.959-.852-.685-1.562 2.467-6.959 5.481-15.197 8.222-22.157.274-.852 1.37-1.846 2.055-1.988.685 0 1.781.994 2.055 1.846 2.741 6.818 5.344 13.777 7.948 20.737.274.852.959 2.982-.274 2.982h-1.096c-.685-.142-.96-1.136-1.097-1.846-.548-2.415-1.37-5.397-3.014-6.391-1.781-1.137-4.796-.285-7.125-.427-2.056-.142-2.878.853-3.563 2.699-.822 2.13-2.192 6.107-2.878 6.107h-.548Zm5.344-10.794c2.467-.142 5.618-.426 8.359-.142a347.682 347.682 0 0 1-3.7-10.084c-.137-.284-.685-.142-.822.142-1.233 3.125-2.466 6.533-3.837 10.084ZM222.118 267.301c-1.37 0-.274-2.272 0-3.124 2.467-6.96 5.207-13.919 7.811-20.879.274-.71 1.233-1.704 1.918-1.704.685 0 1.644.852 1.918 1.562 2.741 6.96 5.207 14.061 7.811 21.163.274.852.548 1.704.411 2.414-.137.426-1.37.568-1.644.284-.686-.994-1.508-3.266-2.467-6.107-.685-1.704-1.644-2.557-3.426-2.273a30 30 0 0 1-5.069 0c-2.056-.284-2.878.853-3.563 2.557-.822 2.13-2.055 6.107-3.015 6.107h-.685Zm13.84-11.22c.137-.284-2.33-6.533-3.563-9.8-.274-.426-.822-.142-.959 0-1.096 3.125-3.837 9.516-3.563 9.8 1.645.568 7.811.426 8.085 0ZM173.748 267.159c-2.877-.142-5.892-.284-8.906-.142-2.193 0-3.015-.71-3.015-3.124.137-6.392.137-12.783 0-19.174 0-2.415.822-3.125 3.015-2.983 2.603.142 6.166 0 8.769.142.685 0 .959.284.959 1.136 0 .568-.274 1.136-.959 1.278-2.055.143-5.207.143-7.262 0-1.37 0-2.056.427-1.918 1.989v.568c-.138 5.823-.138 5.823 5.481 5.823h1.37c.822 0 1.37 0 1.37 1.137 0 1.136-.411 1.136-1.096 1.278-1.37.142-3.426.142-4.796 0-1.918-.142-2.467.71-2.329 2.556a20.691 20.691 0 0 1 0 4.119c-.138 2.131.411 2.983 2.603 2.841 1.781-.142 3.563 0 5.481 0 2.878 0 2.741.426 2.741 1.42 0 .71-.275.994-1.508 1.136ZM316.94 266.875c-1.096-.142-1.371-.426-2.056-.568-.685-.284-.822-.852-.822-1.562.274-1.136 3.152-.426 4.659-.142 3.015.568 5.618-.568 6.303-2.983.685-2.13-.685-4.261-3.425-5.681-1.645-.852-3.289-1.562-4.796-2.557-2.33-1.562-3.289-4.545-2.467-7.101.822-2.699 3.152-4.545 5.892-4.403 1.645 0 3.289.142 4.796.568.685.284 2.056 1.42 1.645 2.273-.274.284-.412.568-.823.426-1.096 0-1.918-.569-3.014-.853-2.467-.71-5.07.284-5.618 2.273-.685 1.846-.274 3.409 1.37 4.403 1.507.994 3.015 1.704 4.522 2.414 2.74 1.279 4.933 3.267 4.933 6.676 0 3.267-1.37 5.823-4.522 6.959-.274.142-1.918.284-2.466.142-1.919-.142-2.193 0-4.111-.284ZM251.716 267.301c-.274-.142-.685-1.562-.548-3.408.137-1.563-.412-9.232-4.933-16.192-1.645-2.272-3.563-4.687-3.563-5.539 0-1.42 1.781-.994 2.603.426 2.467 3.125 5.207 10.51 6.852 10.652 1.781 0 7.947-11.646 8.906-11.93.686-.426 1.371.284 1.097.852-1.782 2.983-3.289 6.249-5.207 9.09-2.604 3.551-3.426 7.386-3.015 11.646.137 1.421.137 4.403-.548 4.403-.548.142-1.507.142-1.644 0ZM43.437 267.301c-.548 0-.548-2.698-.548-3.976v-18.89c0-1.989.548-2.983 2.603-2.841 2.604.142 5.207 0 7.81.142.686 0 1.92.568 1.92 1.136s-.275 1.278-1.097 1.278c-1.918 0-4.659-.142-6.44.142-.685.143-1.096-.142-1.782.569-.136.142-.273 1.846-.273 1.988.136 6.533.273 5.823 6.44 5.965.822 0 1.37.71 1.37 1.279 0 .568-.548.994-1.37.994-7.537.142-6.303-1.136-6.303 5.539 0 2.13.273 3.977-.275 6.391-.41.426-1.78.284-2.055.284ZM122.364 267.301c-1.371 0-.822-2.272-.96-3.55a347.591 347.591 0 0 1 0-16.902c0-2.13-.685-2.983-2.74-2.841-1.233 0-3.152.142-4.248-.142-.548-.142-.822-.568-.822-1.136 0-.426.137-1.136 1.096-1.136 5.07 0 11.099-.142 16.169 0 .548 0 .822.568.822 1.278 0 .71-.274 1.136-1.096.994-.137 0-.959.142-1.096.142-5.481.284-5.481.284-5.481 5.824v13.777c0 1.136.274 3.408-.548 3.408-.548.284-.822.284-1.096.284ZM292.412 267.301c-.822 0-.685-2.414-.685-3.55a336.01 336.01 0 0 1 0-16.618c0-1.42 0-2.983-1.644-3.125h-4.796c-.548 0-1.37-.568-1.37-1.136 0-.71.411-1.278.959-1.278 5.07-.142 11.099 0 16.169 0 .548 0 .959.426.959 1.136s-.274 1.136-.822 1.136h-3.974c-3.289 0-2.74.711-2.74 2.841v17.044c0 1.136.274 3.408-.686 3.408-.548.284-1.096.284-1.37.142ZM276.928 267.301c-.685 0-.822-2.272-.822-3.408-.137-6.392 0-12.783 0-19.174 0-.569.137-1.421.137-1.989 0-.568.685-.994 1.37-.994.686 0 1.097.568 1.097 1.42V263.325c0 1.278.137 4.118-.548 3.976-.274.142-.96.284-1.234 0ZM442.866 267.301c-1.096-.568-.959-1.562-.959-2.414.274-1.136.685-1.278 1.507-1.278 1.096.142 1.645 0 1.919 1.278.137.852.137 1.42-.548 2.13-.686.426-1.234.284-1.919.284ZM239.931 212.478H26.309c-11.647 0-20.691-6.96-23.98-18.464-.548-2.131-.959-4.261-.959-6.392 0-21.872 0-43.603-.137-65.476 0-12.783 10.414-25.423 24.528-25.423h98.11c9.455 0 14.114-3.551 16.58-13.067 4.522-17.328 12.058-32.951 23.568-46.586 10.551-12.64 23.295-22.015 38.368-28.264 8.358-3.409 16.854-5.823 25.76-6.534 6.303-.426 12.881-1.278 19.184-.71 21.787 1.989 41.519 9.8 58.236 24.714 15.484 13.777 25.76 31.104 32.201 51.13 1.233 3.835 2.192 7.67 3.699 11.363 2.467 5.965 7.537 7.954 13.429 7.954h98.384c11.51 0 20.417 6.391 24.116 17.754a23.378 23.378 0 0 1 1.234 7.527c.137 21.873 0 43.746 0 65.76 0 13.351-10.962 24.856-23.843 24.856-71.664-.142-143.191-.142-214.856-.142Zm0-3.835h209.923a51.16 51.16 0 0 0 6.578-.426c10.277-1.137 18.361-10.084 18.361-20.879.137-21.73.137-43.461 0-65.192-.137-11.788-9.866-21.73-21.239-21.588-32.338.142-64.676 0-96.877 0-3.837 0-7.673-.142-11.236-1.989-5.481-2.84-7.947-7.954-9.592-13.635-3.288-12.072-7.81-23.577-14.661-34.087-17.266-26.702-41.245-41.757-72.076-45.024-13.154-1.42-26.035.142-38.641 4.261-14.936 4.83-27.953 13.067-38.915 24.571-13.292 13.92-22.061 30.679-27.131 49.57-.959 3.55-2.741 7.1-4.933 10.225-3.837 5.397-9.729 6.25-15.758 6.25H25.761c-4.248 0-8.085 1.278-11.51 3.834-6.852 5.114-9.318 12.215-9.318 20.595v60.079c0 2.698.274 5.539 1.096 8.095 3.152 10.085 10.825 15.482 21.65 15.482 70.842-.142 141.547-.142 212.252-.142ZM399.292 254.235c0-3.409-.137-6.818 0-10.227 0-.852.822-2.13 1.233-2.272 4.248-.142 8.633-.71 12.744 1.704 3.973 2.415 6.029 7.386 5.207 13.067-.686 4.971-4.248 8.948-8.633 9.658-2.603.426-5.207.426-7.81.568-2.056.142-3.015-.71-2.878-2.982.274-2.983.137-6.25.137-9.516Zm2.741 0c0 2.698-.137 5.255 0 7.953 0 .71.685 1.989 1.096 1.989 3.836.284 7.947.426 10.551-3.267 2.603-3.409 2.74-7.386 1.096-11.362-1.644-4.119-7.948-6.96-11.921-5.256-.548.284-.959 1.279-.959 1.989 0 2.698.137 5.255.137 7.954ZM136.614 254.235c0-3.551 0-7.812.137-11.363 0-.71.685-1.136 1.234-1.136.822 0 1.233.426 1.37 1.136a63.89 63.89 0 0 1 0 7.244c0 1.562.411 2.414 2.055 2.414 3.015-.142 5.892 0 8.907 0 1.507 0 2.055-.568 2.055-2.13-.137-2.273.137-4.829.137-7.102 0-.994.548-1.42 1.233-1.42.823 0 1.234.71 1.234 1.846.137 7.244.137 15.056 0 22.157 0 .71-.685.994-1.508.994-.548 0-1.096-.568-1.096-1.278-.137-2.414-.137-5.539-.137-8.096 0-1.704-.411-2.556-2.192-2.414-2.878.142-5.755 0-8.633 0-1.507 0-2.055.568-2.055 2.13 0 2.557.137 6.108 0 8.664 0 .71-.548.994-1.37.994a1.1 1.1 0 0 1-1.097-1.136c-.137-3.551-.274-7.954-.274-11.504ZM424.505 254.093c0-3.267.137-6.534 0-9.658-.137-2.131.822-2.841 2.74-2.699 2.741.142 6.303-.142 9.044 0 .685 0 .822.71.959 1.278 0 .568-.548 1.136-1.233 1.136-2.056.142-4.796 0-6.714.142-.686 0-1.782.427-1.782.711a56.586 56.586 0 0 0 0 6.817c0 .284 1.096.568 1.645.71 1.644.142 3.562-.142 5.206.142.549 0 1.097.71 1.097 1.421 0 .568-.411.994-.959.994-1.508.142-3.563.142-5.207 0-1.645-.142-2.193.71-2.056 2.272a31.855 31.855 0 0 1 0 5.113c-.137 1.563.685 2.131 2.056 1.989 2.192 0 5.069 0 7.262.142.548 0 1.096.142 1.096 1.136 0 1.278-.411 1.42-.959 1.42-3.015.142-6.851 0-9.866 0-1.644 0-2.329-.852-2.192-2.556 0-3.693-.137-7.102-.137-10.51ZM444.647 245.997c0-3.409 1.919-5.681 4.933-5.539 2.878 0 4.933 2.414 5.07 5.397 0 3.267-2.055 5.397-5.07 5.397-3.288 0-4.933-1.846-4.933-5.255Zm8.222 2.698c.548-.568 1.096-2.698.411-4.687-.685-1.988-2.192-3.266-4.385-2.698-2.055.426-3.151 1.988-3.151 4.119 0 2.13.411 4.119 2.603 4.545 1.233.284 3.289-.142 3.7-.426l.822-.853ZM309.815 241.594c1.096.852-2.878 5.823-2.878 8.38-2.055-.71-.411-6.25.137-7.386.548-.994 1.644-1.704 2.741-.994Z" fill="#AC153A"/><path d="M239.794 203.388H25.213c-8.085 0-14.8-6.676-14.936-15.482a5215.51 5215.51 0 0 1 0-65.476c.137-9.516 6.714-15.623 16.306-15.623 33.297 0 66.594-.142 99.891.142 10.277.142 20.554-7.954 23.432-19.032 6.166-23.72 17.95-44.03 37.271-58.8 14.113-10.653 30.008-16.192 47.41-17.186 11.648-.569 23.158.71 34.257 4.403 11.784 3.976 22.198 10.226 31.242 18.89 14.661 13.919 24.253 31.246 29.46 50.989 2.33 8.948 6.851 15.765 15.484 19.032 2.329.852 4.933 1.42 7.399 1.42 33.435.142 66.869.142 100.44 0 6.714 0 11.921 2.272 15.073 8.664 1.096 2.13 1.644 4.829 1.644 7.385.137 21.589.137 43.32 0 64.908 0 9.09-6.577 15.766-15.347 15.766h-69.061c-48.37-.142-96.877-.142-145.384 0Zm.549-1.563h210.882c2.329 0 4.796 0 7.125-.71 6.714-2.13 10.14-7.527 10.14-15.623v-60.647c0-10.794-5.618-16.618-16.032-16.618h-99.892c-10.551 0-20.416-7.811-23.294-18.322-2.74-9.942-6.166-19.6-11.099-28.548-9.044-16.617-21.376-29.968-37.956-38.49-18.635-9.516-38.23-11.93-58.51-7.67-19.869 4.12-36.312 14.487-49.329 30.537-10.414 12.783-17.128 27.412-21.239 43.32-2.878 11.22-12.743 19.173-23.842 19.173H26.172c-7.948 0-14.114 6.108-14.25 14.061v65.76c0 4.971 2.466 8.948 6.576 11.505 3.289 2.13 6.852 2.13 10.414 2.13 70.568.142 140.999.142 211.431.142ZM451.91 249.121c-1.233.142-1.096-1.846-2.467-1.988-1.37-.426-.959 2.13-1.781 2.13-.959-.568-.137-3.408 0-4.829.137-1.704 1.507-1.846 2.466-1.42.686.284 1.097 1.42 1.371 2.415.274 1.278.274 2.556.411 3.692 0 0 0 .142 0 0Z" fill="#AC153A"/><path d="M239.931 196.286H28.227c-1.781 0-3.7 0-5.344-.71-3.7-1.42-5.755-4.261-5.755-8.38v-64.624c0-5.255 3.837-8.948 9.044-8.948h99.206c5.207 0 10.14-.71 14.799-3.124 7.947-4.119 12.469-10.795 14.662-19.459 4.796-18.605 13.154-35.081 26.583-48.432 11.099-11.078 24.253-18.464 39.326-22.015 13.428-3.124 26.994-2.982 40.285.426 13.292 3.41 25.076 9.943 35.216 19.459 14.662 13.777 23.568 31.104 28.775 50.847 3.7 14.203 14.114 22.298 28.364 22.298h99.892c5.755 0 9.181 3.409 9.181 9.516 0 21.305-.137 42.61.137 63.914 0 5.681-4.522 9.374-8.77 9.374h-5.481c-69.335-.142-138.944-.142-208.416-.142Zm6.715-87.775c-1.508 1.421-2.741.852-3.837-.142-8.222-6.249-12.743-14.629-12.743-25.14 0-4.118.685-8.095 1.096-12.214.274-3.124 2.466-5.255 5.481-5.539 2.192-.142 4.385-.426 6.44.142 1.644.426 3.974 1.989 4.111 3.267.274 2.84 1.507 3.266 3.7 2.982 1.37-.142 2.74 0 4.247 0 .959 0 2.056 0 2.878-.426 2.603-1.278 5.207-2.698 7.81-4.403.685-.426 1.371-1.42 1.508-2.272.137-2.13 0-4.261-.275-6.392-.137-1.704.549-2.272 2.056-2.272 3.563-.142 3.563-.142 3.563-3.977 0-.71-.137-1.42 0-1.988.274-1.989-.549-2.84-2.467-2.557-2.055.284-3.426-.426-4.933-1.988-3.562-3.835-8.084-5.681-13.291-5.681-10.962 0-22.061-.142-33.023 0-8.222.142-13.018 8.805-11.099 14.913.685 2.272.959 4.545 1.781 6.817.274.852 1.233 1.847 2.055 2.273 1.645.852 3.426 1.278 5.07 1.846 2.056.568 2.741 1.846 2.33 3.977-1.645 8.38-3.289 16.902-4.796 25.281-.959 5.682-2.741 10.795-7.263 14.63-1.096.994-1.644 2.698-2.603 4.402h70.02c-.548-2.698-1.781-3.976-4.248-4.118-1.644-.142-3.289-.569-5.481-.995 1.918-1.846 3.152-2.84 4.248-4.119 7.125-8.237 9.181-18.18 9.318-28.832 0-1.562-.823-2.13-2.193-2.13h-40.422c-1.371 0-2.193.568-2.056 2.13.137 6.25.822 12.499 3.152 18.464 2.055 5.681 5.207 10.368 9.866 14.061Zm-157.58 30.253c.138-.142-.548-.284-.822-.284-3.014 0-6.029.142-9.043 0-1.919-.142-3.015.568-4.111 2.13-2.604 3.551-5.207 7.244-8.222 10.51-.959.995-2.603 1.563-3.973 1.279-1.234 0-1.234-1.847-1.37-3.125 0-2.841-.138-5.823 0-8.664 0-1.562-.549-2.13-2.056-2.13H44.944c-1.37 0-1.918.426-1.918 1.846 0 9.942 0 19.742.137 29.684 0 .569 1.096 1.705 1.644 1.705 4.933.142 9.866 0 14.799.142 1.507 0 2.055-.71 1.918-2.131-.137-1.846 0-3.692 0-5.681-.137-2.272 1.097-2.698 2.74-1.988a5.4 5.4 0 0 1 2.33 1.988c1.37 1.847 2.467 4.119 3.837 5.823.685.853 2.055 1.847 3.015 1.847 5.892.142 11.647.142 17.539.142.548 0 1.644 0 2.192-.426-6.44-9.09-7.262-15.055-14.936-19.458 3.563-4.403 7.4-9.09 10.826-13.209Zm282.821 32.809c0-.568.137-.852 0-.994-5.207-10.227-10.277-20.311-15.484-30.395-.411-.852-1.918-1.704-2.877-1.704a372.504 372.504 0 0 0-17.814 0c-.548 0-1.096.142-1.918.284.274.71.411 1.136.685 1.42 1.918 1.704 1.233 3.409.137 5.397-3.974 7.244-7.947 14.487-11.784 21.731-.685 1.278-1.233 2.556-2.193 4.403h8.633c.548 0 1.233-.71 1.37-1.136 1.508-4.687 4.796-5.398 8.907-4.829 1.233.142 2.603.142 3.974 0 3.014-.427 5.07.71 6.029 3.834.548 1.847 1.781 2.557 3.699 2.415 5.481-.142 10.825 0 16.306 0 .823-.284 1.508-.426 2.33-.426Zm50.014-18.89c-1.507-.426-2.603-.71-3.699-.994-5.893-1.137-11.648-1.137-16.855 2.556-6.166 4.261-5.481 12.783 1.097 16.192 3.836 1.988 7.81 2.272 12.058 1.846 3.288-.284 6.166-1.846 9.866-.71 3.562 1.136 7.673.142 11.51.284 1.507 0 2.192-.568 2.192-2.273v-24.997c0-1.988-.822-2.557-2.466-2.557-3.837.142-7.537.142-11.373 0-1.919 0-2.33.853-2.33 2.557.137 2.557 0 5.113 0 8.096Zm-213.759-.284v-8.38c0-1.562-.549-2.131-2.056-2.131-4.385.142-8.906 0-13.291 0-1.508 0-2.193.569-2.193 2.273v25.281c0 1.705.685 2.273 2.193 2.273h13.291c1.644 0 2.056-.71 2.056-2.273-.137-2.272 0-4.545 0-6.959 0-2.273.959-3.693 3.014-3.835 1.918-.284 3.289 1.42 3.426 3.835a58.952 58.952 0 0 1 0 6.959c0 1.563.411 2.415 2.055 2.415h11.647c1.508 0 1.919-.71 1.919-2.131v-10.794c0-2.414-1.097-4.403-3.015-5.539-1.918-1.136-4.248-2.131-6.44-2.131-4.111 0-8.222.711-12.606 1.137Zm69.06 9.374v7.953c0 1.279.411 2.131 1.782 2.131 4.522 0 9.043 0 13.565-.142.548 0 1.645-1.136 1.645-1.705.274-2.272 0-4.545.137-6.817 0-2.415 1.507-4.261 3.288-4.403 1.919 0 3.289 1.562 3.426 4.261a54.255 54.255 0 0 1 0 6.675c0 1.563.548 2.273 2.192 2.273h11.373c1.371 0 2.193-.426 2.056-2.131v-10.51c-.137-3.551-2.056-5.965-5.344-7.101-3.974-1.421-8.085-1.279-12.196-.284-2.055.426-3.836.994-6.166.71-4.522-.71-9.317-.284-13.976-.142-.548 0-1.645 1.136-1.645 1.704-.274 2.273-.137 4.971-.137 7.528Zm-25.349 2.556c.822 0 1.507-.142 2.192-.142 5.481 0 10.825-.142 16.306 0 1.644 0 2.193-.71 2.055-2.272-.274-3.835-2.055-6.96-5.344-8.522-9.043-4.403-18.087-4.119-26.994.568-2.329 1.278-4.521 2.841-5.069 5.823-.96 4.687 1.37 8.948 6.166 10.795 8.906 3.408 17.95 2.556 26.994.568 2.877-.71 3.562-2.415 2.877-5.824-12.743 2.557-16.991 2.415-19.183-.994Zm-110.169-12.214c0-1.279-.137-2.131 0-2.983.274-2.272-.548-3.125-2.877-2.983-3.426.142-6.852.142-10.277 0-2.056-.142-3.152.711-2.878 2.983.411 2.557-.685 3.409-3.014 3.125-1.645-.284-2.467.568-2.193 2.414.137.71 0 1.42 0 1.989-.137 1.704.685 2.414 2.193 2.272 2.603-.426 3.288.994 3.151 3.409-.137.852 0 1.846 0 2.84.411 4.119 1.782 5.824 5.755 6.96 4.248 1.136 8.633.852 12.881-.284 3.974-.994 4.522-1.847 3.288-6.392-.548 0-1.096.143-1.644.143-2.877.426-4.248-.427-4.385-2.841-.274-3.551-.137-3.693 3.563-3.835h.548c3.152.284 2.192-1.988 2.329-3.693.137-1.846-.137-3.266-2.466-2.84-1.233-.142-2.466-.284-3.974-.284Zm43.026 7.243c.959-4.545.685-5.965-2.192-6.817-7.263-1.989-14.525-2.273-21.787-.142-3.152.994-5.755 2.84-7.263 6.107-2.055 4.545.412 9.658 5.756 11.931 6.988 2.982 14.25 2.556 21.512 1.136 4.385-.852 5.344-2.841 3.837-7.528-.548.142-.685.426-1.781.568-3.152.142-6.303.71-9.455.284-1.233-.142-3.288-1.988-3.288-3.124 0-1.279 1.918-2.699 3.151-3.125 1.918-.568 3.974-.568 6.029-.426 1.782.142 3.7.852 5.481 1.136Zm-69.609 2.557c0-2.699.137-5.255 0-7.954 0-.71-1.096-1.704-1.644-1.704-4.385-.142-8.77 0-13.017-.142-1.37 0-1.919.568-1.919 1.988v15.339c0 1.705.685 2.273 2.193 2.273h12.058c1.644 0 2.329-.568 2.329-2.415v-7.385Zm261.719 0v7.385c0 1.705.548 2.557 2.192 2.415h12.058c1.508 0 2.056-.568 2.056-2.131v-15.339c0-1.562-.411-2.13-1.919-2.13h-12.332c-1.644 0-2.192.71-2.055 2.272v7.528Zm8.221-10.937c2.33 0 4.659-.71 6.578-1.846 2.192-1.42 2.055-4.261-.137-5.965-3.152-2.415-9.592-2.415-12.881 0-2.466 1.846-2.466 4.971.274 6.391 1.782.852 3.7 1.42 6.166 1.42Zm-278.024.284c2.603 0 4.659-.994 6.577-2.13 2.192-1.278 2.055-4.261 0-5.681-3.289-2.557-9.729-2.557-13.017-.142-2.33 1.704-2.467 4.687 0 6.249 1.918.852 3.973 1.704 6.44 1.704Zm342.837-.994c3.426 0 5.618-2.272 5.618-5.823 0-3.409-2.192-5.965-5.344-5.965-3.288-.142-5.618 2.414-5.618 5.965 0 3.551 2.056 5.823 5.344 5.823Z" fill="#AC153A"/><path d="M239.794 59.653h-22.472c-1.096 0-2.603.426-2.603-1.705 0-1.988 1.507-1.562 2.603-1.562h45.356c.822 0 2.055.568 2.192 1.278.548 1.847-.685 1.989-2.192 1.989-7.537-.142-15.21 0-22.884 0ZM247.879 65.05c0-.568 1.37-.994 2.055-.994 4.659-.142 9.318 0 14.114 0 .137 0 .959 0 .959.568-.274.852-1.096.994-1.507.994h-15.347c-.137.142-.274-.142-.274-.568ZM343.934 158.648h-6.714c1.096-2.272 2.055-4.119 3.288-6.533 1.37 2.414 2.33 4.261 3.426 6.533ZM417.516 165.039c-2.192 0-3.836-1.42-3.836-3.408 0-1.989 1.644-3.267 3.973-3.267 2.878 0 4.111 1.136 4.385 3.267.274 2.13-1.096 3.124-4.522 3.408ZM256.786 158.364h-5.481c-.137 0-.274-.568-.137-.852.274-.71 2.192-1.136 3.014-1.136 1.233 0 2.055.426 2.741.852.274.426.274 1.136-.137 1.136ZM452.869 147.286c-.411-1.421-.822-2.273-.959-3.267-.137-1.136-.274-2.273-.274-3.409 2.329.568 3.151 3.125 1.233 6.676ZM447.662 141.178v6.108c-2.192-1.137-2.329-3.409 0-6.108ZM451.225 142.457c.274 1.278-.548 1.988-1.371 1.846-.685-.142-1.233.142-1.233-1.562 0-.853.685-1.705 1.233-1.563.548.284 1.097.426 1.371 1.279ZM451.636 147.712h-2.878l.137-2.557 2.193.426.548 2.131Z" fill="#AC153A"/></svg>